<mxfile host="app.diagrams.net" agent="Mozilla/5.0 (Windows NT 10.0; Win64; x64) AppleWebKit/537.36 (KHTML, like Gecko) Chrome/132.0.0.0 YaBrowser/25.2.0.0 Safari/537.36" version="26.2.3">
  <diagram name="Страница — 1" id="eK9Hi3Mvnjnnnvs_4XW7">
    <mxGraphModel dx="1044" dy="619" grid="1" gridSize="10" guides="1" tooltips="1" connect="1" arrows="1" fold="1" page="1" pageScale="1" pageWidth="827" pageHeight="1169" math="0" shadow="0">
      <root>
        <mxCell id="0" />
        <mxCell id="1" parent="0" />
        <mxCell id="zc3xWSvW3D-fICQtGpmV-21" value="" style="edgeStyle=orthogonalEdgeStyle;rounded=0;orthogonalLoop=1;jettySize=auto;html=1;" edge="1" parent="1" source="zc3xWSvW3D-fICQtGpmV-3" target="zc3xWSvW3D-fICQtGpmV-4">
          <mxGeometry relative="1" as="geometry" />
        </mxCell>
        <mxCell id="zc3xWSvW3D-fICQtGpmV-3" value="Начало" style="strokeWidth=2;html=1;shape=mxgraph.flowchart.start_1;whiteSpace=wrap;" vertex="1" parent="1">
          <mxGeometry x="210" y="50" width="100" height="60" as="geometry" />
        </mxCell>
        <mxCell id="zc3xWSvW3D-fICQtGpmV-22" value="" style="edgeStyle=orthogonalEdgeStyle;rounded=0;orthogonalLoop=1;jettySize=auto;html=1;" edge="1" parent="1" source="zc3xWSvW3D-fICQtGpmV-4" target="zc3xWSvW3D-fICQtGpmV-5">
          <mxGeometry relative="1" as="geometry" />
        </mxCell>
        <mxCell id="zc3xWSvW3D-fICQtGpmV-4" value="Инициализация для каждой вершины v:&lt;div&gt;distance[v] = inf;&lt;/div&gt;&lt;div&gt;visited[v] = false;&lt;/div&gt;&lt;div&gt;parent[v] = -1;&lt;/div&gt;&lt;div&gt;distance[s] = 0;&lt;/div&gt;&lt;div&gt;&lt;br&gt;&lt;/div&gt;" style="shape=parallelogram;html=1;strokeWidth=2;perimeter=parallelogramPerimeter;whiteSpace=wrap;rounded=1;arcSize=12;size=0.10344827586206896;" vertex="1" parent="1">
          <mxGeometry x="115" y="140" width="290" height="90" as="geometry" />
        </mxCell>
        <mxCell id="zc3xWSvW3D-fICQtGpmV-23" value="" style="edgeStyle=orthogonalEdgeStyle;rounded=0;orthogonalLoop=1;jettySize=auto;html=1;" edge="1" parent="1" source="zc3xWSvW3D-fICQtGpmV-5" target="zc3xWSvW3D-fICQtGpmV-6">
          <mxGeometry relative="1" as="geometry" />
        </mxCell>
        <mxCell id="zc3xWSvW3D-fICQtGpmV-24" value="Нет" style="edgeLabel;html=1;align=center;verticalAlign=middle;resizable=0;points=[];" vertex="1" connectable="0" parent="zc3xWSvW3D-fICQtGpmV-23">
          <mxGeometry x="0.0133" y="-1" relative="1" as="geometry">
            <mxPoint as="offset" />
          </mxGeometry>
        </mxCell>
        <mxCell id="zc3xWSvW3D-fICQtGpmV-25" value="" style="edgeStyle=orthogonalEdgeStyle;rounded=0;orthogonalLoop=1;jettySize=auto;html=1;" edge="1" parent="1" source="zc3xWSvW3D-fICQtGpmV-5" target="zc3xWSvW3D-fICQtGpmV-8">
          <mxGeometry relative="1" as="geometry" />
        </mxCell>
        <mxCell id="zc3xWSvW3D-fICQtGpmV-26" value="Да" style="edgeLabel;html=1;align=center;verticalAlign=middle;resizable=0;points=[];" vertex="1" connectable="0" parent="zc3xWSvW3D-fICQtGpmV-25">
          <mxGeometry x="0.296" y="-1" relative="1" as="geometry">
            <mxPoint as="offset" />
          </mxGeometry>
        </mxCell>
        <mxCell id="zc3xWSvW3D-fICQtGpmV-5" value="Есть ли вершина visited[v] = false" style="strokeWidth=2;html=1;shape=mxgraph.flowchart.decision;whiteSpace=wrap;" vertex="1" parent="1">
          <mxGeometry x="190" y="260" width="140" height="100" as="geometry" />
        </mxCell>
        <mxCell id="zc3xWSvW3D-fICQtGpmV-6" value="Конец" style="strokeWidth=2;html=1;shape=mxgraph.flowchart.start_1;whiteSpace=wrap;" vertex="1" parent="1">
          <mxGeometry x="390" y="280" width="100" height="60" as="geometry" />
        </mxCell>
        <mxCell id="zc3xWSvW3D-fICQtGpmV-27" value="" style="edgeStyle=orthogonalEdgeStyle;rounded=0;orthogonalLoop=1;jettySize=auto;html=1;" edge="1" parent="1" source="zc3xWSvW3D-fICQtGpmV-8" target="zc3xWSvW3D-fICQtGpmV-9">
          <mxGeometry relative="1" as="geometry" />
        </mxCell>
        <mxCell id="zc3xWSvW3D-fICQtGpmV-8" value="Выбор вершины u:&lt;div&gt;visited[u] = false и&lt;/div&gt;&lt;div&gt;минимальный distance[u]&lt;/div&gt;" style="rounded=0;whiteSpace=wrap;html=1;" vertex="1" parent="1">
          <mxGeometry x="200" y="390" width="120" height="60" as="geometry" />
        </mxCell>
        <mxCell id="zc3xWSvW3D-fICQtGpmV-28" value="" style="edgeStyle=orthogonalEdgeStyle;rounded=0;orthogonalLoop=1;jettySize=auto;html=1;" edge="1" parent="1" source="zc3xWSvW3D-fICQtGpmV-9" target="zc3xWSvW3D-fICQtGpmV-10">
          <mxGeometry relative="1" as="geometry" />
        </mxCell>
        <mxCell id="zc3xWSvW3D-fICQtGpmV-9" value="Пометить посещение visited[u] = true" style="rounded=0;whiteSpace=wrap;html=1;" vertex="1" parent="1">
          <mxGeometry x="200" y="480" width="120" height="60" as="geometry" />
        </mxCell>
        <mxCell id="zc3xWSvW3D-fICQtGpmV-31" value="" style="edgeStyle=orthogonalEdgeStyle;rounded=0;orthogonalLoop=1;jettySize=auto;html=1;entryX=0;entryY=0.5;entryDx=0;entryDy=0;entryPerimeter=0;" edge="1" parent="1" source="zc3xWSvW3D-fICQtGpmV-10" target="zc3xWSvW3D-fICQtGpmV-5">
          <mxGeometry relative="1" as="geometry">
            <mxPoint x="110" y="310" as="targetPoint" />
            <Array as="points">
              <mxPoint x="76" y="620" />
              <mxPoint x="76" y="310" />
            </Array>
          </mxGeometry>
        </mxCell>
        <mxCell id="zc3xWSvW3D-fICQtGpmV-10" value="Обход соседей вершины u:&lt;div&gt;Для каждой вершины v:&lt;/div&gt;&lt;div&gt;если visited[v] = false и distance[u] + w(u, v) &amp;lt; distance[v]&lt;/div&gt;&lt;div&gt;тогда:&lt;/div&gt;&lt;div&gt;distance[v] = distance[u] + w(u, v)&lt;/div&gt;&lt;div&gt;parent[v] = u&lt;/div&gt;" style="rounded=0;whiteSpace=wrap;html=1;" vertex="1" parent="1">
          <mxGeometry x="155" y="570" width="210" height="100" as="geometry" />
        </mxCell>
      </root>
    </mxGraphModel>
  </diagram>
</mxfile>
